<svg width="16" height="20" viewBox="0 0 16 20" fill="none" xmlns="http://www.w3.org/2000/svg">
<path d="M12.5834 2.79501V0.833344H9.83335V2.66668H6.16669V0.833344H3.41669V2.79501C1.84002 3.20751 0.666687 4.62834 0.666687 6.33334V17.3333C0.666687 18.3417 1.49169 19.1667 2.50002 19.1667H13.5C14.5084 19.1667 15.3334 18.3417 15.3334 17.3333V6.33334C15.3334 4.62834 14.16 3.20751 12.5834 2.79501ZM13.5 17.3333H2.50002V6.33334C2.50002 5.32501 3.32502 4.50001 4.33335 4.50001H11.6667C12.675 4.50001 13.5 5.32501 13.5 6.33334V17.3333ZM12.125 10V13.6667H10.2917V11.8333H3.87502V10H12.125Z" fill="#4B90E2"/>
</svg>
